<?xml version="1.0" encoding="UTF-8" standalone="no"?>
<!-- Created with Inkscape (http://www.inkscape.org/) -->

<svg
   width="150"
   height="150"
   viewBox="0 0 39.687498 39.687501"
   version="1.1"
   id="svg145224"
   inkscape:version="1.1 (c68e22c387, 2021-05-23)"
   sodipodi:docname="final logo svg.svg"
   inkscape:export-filename="C:\Users\donag\Desktop\Donagh_Sugrue_120225113_png.png"
   inkscape:export-xdpi="96"
   inkscape:export-ydpi="96"
   xmlns:inkscape="http://www.inkscape.org/namespaces/inkscape"
   xmlns:sodipodi="http://sodipodi.sourceforge.net/DTD/sodipodi-0.dtd"
   xmlns="http://www.w3.org/2000/svg"
   xmlns:svg="http://www.w3.org/2000/svg">
  <sodipodi:namedview
     id="namedview145226"
     pagecolor="#ffffff"
     bordercolor="#666666"
     borderopacity="1.0"
     inkscape:pageshadow="2"
     inkscape:pageopacity="0.0"
     inkscape:pagecheckerboard="true"
     inkscape:document-units="mm"
     showgrid="false"
     units="px"
     width="500px"
     inkscape:zoom="4.1524866"
     inkscape:cx="56.953827"
     inkscape:cy="60.56612"
     inkscape:window-width="1920"
     inkscape:window-height="1013"
     inkscape:window-x="-9"
     inkscape:window-y="-9"
     inkscape:window-maximized="1"
     inkscape:current-layer="layer1" />
  <defs
     id="defs145221">
    <clipPath
       clipPathUnits="userSpaceOnUse"
       id="clipPath177962">
      <path
         style="font-variation-settings:normal;opacity:0.92;vector-effect:none;fill:#0ad5a7;fill-opacity:0.501961;stroke:#000000;stroke-width:2.90549;stroke-linecap:round;stroke-linejoin:round;stroke-miterlimit:4;stroke-dasharray:none;stroke-dashoffset:0;stroke-opacity:1;-inkscape-stroke:none;stop-color:#000000;stop-opacity:1"
         d="m 162.68124,840.12491 c -0.90912,-1.02251 -7.42072,-6.68362 -14.46941,-12.58012 C 93.558094,781.82439 41.559763,752.75901 2.8346481,746.28371 c -6.0972138,-1.0195 -11.7156305,-1.3225 -20.3735381,-1.09861 -6.575005,0.17013 -11.68938,0.09 -11.365278,-0.18812 0.324155,-0.27299 4.589138,-3.3805 9.477716,-6.9043 4.888578,-3.52388 8.888494,-6.65348 8.888732,-6.95468 2.12e-4,-0.30101 1.2877299,-9.66329 2.8611131,-20.80479 3.9277555,-27.813 5.6652803,-44.79092 5.0582501,-49.42621 -0.2811286,-2.14712 -0.7252874,-5.45959 -0.9869137,-7.361 -0.2617057,-1.9014 -1.1693403,-4.08482 -2.0170921,-4.852 -2.0560701,-1.86071 -7.2661304,-2.33321 -14.9586644,-1.3566 -7.184496,0.91199 -12.632871,0.17594 -17.508191,-2.36501 -11.022494,-5.74529 -20.838072,-19.17811 -24.653922,-33.73929 -2.083802,-7.95171 -2.892152,-23.88841 -1.671212,-32.9483 l 0.91433,-6.78471 -3.59164,-10.16511 c -1.975415,-5.59088 -5.338055,-14.258 -7.472531,-19.26018 -9.735135,-22.81481 -15.298406,-48.51821 -15.332779,-70.84031 -0.02699,-17.60048 2.690488,-30.87069 9.072614,-44.3026 4.060355,-8.54538 5.53022,-10.69719 21.860154,-32.00189 23.396437,-30.52392 40.836225,-46.5683 62.0686551,-57.1025 24.9469839,-12.37711 48.4522579,-16.69759 86.3055149,-15.86381 25.406384,0.56002 46.629954,3.11229 76.847114,9.24271 l 9.36377,1.89969 59.6761,-24.6498 59.67597,-24.64988 0.53807,2.63027 c 1.59119,7.78142 2.76956,34.58001 2.76956,62.98832 0,25.8821 -0.26705,33.38 -1.517,42.54479 -2.86947,21.0439 -7.93669,35.774 -14.19768,41.27119 -1.58891,1.39512 -2.88887,2.9419 -2.88887,3.43742 0,0.495 1.46989,3.94851 3.26651,7.67339 3.9196,8.12652 4.95473,12.3014 4.98153,20.0918 0.0212,6.02091 -0.1069,6.3822 -6.36381,17.99471 -1.7593,3.26519 -0.9641,13.21329 1.66142,20.77579 6.19187,17.83781 20.81291,39.3708 31.9942,47.11952 6.99789,4.84949 8.7945,11.89609 4.7726,18.71847 -3.00176,5.09212 -5.93165,7.62871 -13.47827,11.66921 -5.98475,3.20429 -6.60065,3.76751 -6.83947,6.2538 -0.1839,1.91299 0.66607,4.51649 2.83516,8.68169 1.70352,3.27203 3.66316,7.06541 4.35445,8.42971 2.72372,5.37511 1.03653,9.71621 -5.70243,14.6721 -1.81051,1.33141 -3.29181,2.7686 -3.29181,3.19381 0,0.425 0.97713,2.2489 2.17047,4.05281 2.73965,4.13999 2.81957,7.35787 0.22492,9.05489 -3.95268,2.5849 -4.8755,4.07199 -4.8755,7.856 0,4.96629 2.23008,10.59519 8.69318,21.94179 2.97868,5.2297 6.54933,11.82111 7.93439,14.6476 2.42312,4.9444 2.48131,5.31781 1.5384,9.86002 -1.79222,8.63287 -9.71733,24.9641 -15.38062,31.69449 -4.35024,5.17009 -16.63588,9.71619 -35.85829,13.26909 -5.22967,0.967 -12.14372,2.25139 -15.36464,2.8552 -11.64124,2.18241 -25.82974,9.61609 -37.67302,19.7381 -5.29977,4.5294 -7.77377,7.62471 -15.29621,19.13699 -4.93571,7.55351 -11.8856,17.90042 -15.44424,22.99301 -10.65444,15.24741 -12.8525,20.769 -13.67932,34.36371 l -0.52106,8.56801 z"
         id="path177964" />
    </clipPath>
  </defs>
  <g
     inkscape:label="Layer 1"
     inkscape:groupmode="layer"
     id="layer1">
    <path
       style="font-variation-settings:normal;display:inline;fill:#ffffff;fill-opacity:1;stroke:#ffffff;stroke-width:1.59995;stroke-linecap:round;stroke-linejoin:round;stroke-miterlimit:4;stroke-dasharray:none;stroke-dashoffset:0;stroke-opacity:1;stop-color:#000000"
       d="m 22.598338,36.654239 c -0.05456,-0.06136 -0.44509,-0.401017 -0.86787,-0.75481 -3.278143,-2.743228 -6.397017,-4.487152 -8.719743,-4.875672 -0.36572,-0.0612 -0.702705,-0.07936 -1.222007,-0.06592 -0.394374,0.01024 -0.70113,0.0048 -0.681691,-0.01128 0.01944,-0.01641 0.275254,-0.202832 0.568475,-0.414265 0.29322,-0.211424 0.533132,-0.3992 0.533148,-0.417273 8e-6,-0.01808 0.07728,-0.579809 0.171605,-1.24829 0.235592,-1.668786 0.339817,-2.687461 0.303396,-2.965581 -0.01688,-0.128824 -0.04351,-0.327576 -0.05919,-0.441657 -0.01568,-0.114088 -0.07015,-0.245088 -0.120983,-0.29112 -0.123328,-0.111649 -0.435828,-0.139992 -0.897229,-0.0814 -0.430915,0.05472 -0.757718,0.01056 -1.050139,-0.141905 C 9.894986,24.600354 9.306241,23.794385 9.077369,22.920711 8.952385,22.443606 8.9039,21.487396 8.977129,20.943812 L 9.032009,20.536731 8.816583,19.926818 C 8.698094,19.591369 8.496404,19.071336 8.368373,18.7712 7.784467,17.402318 7.450778,15.860106 7.448713,14.520784 7.447913,13.464751 7.610095,12.668533 7.992894,11.86262 8.236429,11.349891 8.3246,11.220787 9.304071,9.9425045 c 1.403323,-1.831436 2.449357,-2.794109 3.722881,-3.426158 1.496325,-0.742634 2.906168,-1.001866 5.17661,-0.951826 1.523883,0.0336 2.796871,0.186736 4.609303,0.554562 l 0.561642,0.113984 3.579371,-1.478995 3.579371,-1.478995 0.03232,0.157817 c 0.09543,0.466889 0.166108,2.074803 0.166108,3.779302 0,1.552931 -0.016,2.002804 -0.09099,2.552693 -0.172108,1.2626335 -0.47604,2.1464435 -0.851575,2.4762755 -0.09529,0.08371 -0.173268,0.176513 -0.173268,0.206249 0,0.02976 0.08817,0.236905 0.195915,0.460401 0.235096,0.487584 0.297196,0.738089 0.298796,1.205514 7.99e-4,0.361248 -0.0064,0.382928 -0.381703,1.079682 -0.105521,0.195912 -0.05783,0.792801 0.09966,1.246546 0.371392,1.070274 1.248358,2.36226 1.919017,2.827181 0.419724,0.290969 0.527486,0.713761 0.286254,1.123106 -0.180045,0.305528 -0.355769,0.457728 -0.808419,0.700153 -0.358969,0.192264 -0.395918,0.226048 -0.410237,0.375232 -0.01096,0.114776 0.04,0.270993 0.170053,0.520897 0.102185,0.196328 0.219714,0.423929 0.261175,0.505785 0.163373,0.322513 0.06215,0.582977 -0.342018,0.88033 -0.108601,0.07992 -0.197451,0.16612 -0.197451,0.191632 0,0.02552 0.05864,0.134928 0.130176,0.24316 0.164341,0.248409 0.169124,0.441481 0.01352,0.543297 -0.23708,0.155096 -0.292429,0.244321 -0.292429,0.471369 0,0.297976 0.133759,0.635705 0.521414,1.316507 0.178659,0.313784 0.392821,0.709265 0.475904,0.878857 0.145343,0.296664 0.148838,0.319065 0.09227,0.591593 -0.107496,0.517985 -0.582842,1.497859 -0.922531,1.901683 -0.260926,0.310201 -0.997822,0.582969 -2.150785,0.796145 -0.313668,0.058 -0.728376,0.135089 -0.921563,0.171312 -0.69825,0.130945 -1.549274,0.57697 -2.259643,1.184291 -0.317875,0.27176 -0.466264,0.457481 -0.917467,1.148217 -0.296036,0.453218 -0.712897,1.074026 -0.926339,1.379587 -0.639054,0.914842 -0.770892,1.246138 -0.820482,2.061827 l -0.03127,0.514073 z"
       id="path111543" />
    <g
       id="g70015"
       transform="matrix(0.06073385,0,0,0.06075,12.709553,-13.976773)"
       clip-path="url(#clipPath177962)"
       style="display:inline;opacity:0">
      <path
         style="opacity:0.5;fill:#0ad5a7;fill-opacity:1;stroke:none;stroke-width:3;stroke-linecap:round;stroke-linejoin:round;stroke-miterlimit:4;stroke-dasharray:none;stroke-opacity:1"
         id="rect69997"
         width="539.75"
         height="52.916664"
         x="-116.41666"
         y="285.75"
         sodipodi:type="rect"
         d="m -116.41666,285.75 h 539.75 v 52.91666 h -539.75 z" />
      <path
         style="display:inline;opacity:0.5;fill:#0ad5a7;fill-opacity:1;stroke:none;stroke-width:3;stroke-linecap:round;stroke-linejoin:round;stroke-miterlimit:4;stroke-dasharray:none;stroke-opacity:1"
         id="rect69999"
         width="539.75"
         height="52.916664"
         x="-116.41666"
         y="349.25"
         sodipodi:type="rect"
         d="m -116.41666,349.25 h 539.75 v 52.91666 h -539.75 z" />
      <path
         style="display:inline;opacity:0.5;fill:#0ad5a7;fill-opacity:1;stroke:none;stroke-width:3;stroke-linecap:round;stroke-linejoin:round;stroke-miterlimit:4;stroke-dasharray:none;stroke-opacity:1"
         id="rect70001"
         width="539.75"
         height="52.916664"
         x="-116.41666"
         y="412.75"
         sodipodi:type="rect"
         d="m -116.41666,412.75 h 539.75 v 52.91666 h -539.75 z" />
      <path
         style="display:inline;opacity:0.5;fill:#0ad5a7;fill-opacity:1;stroke:none;stroke-width:3;stroke-linecap:round;stroke-linejoin:round;stroke-miterlimit:4;stroke-dasharray:none;stroke-opacity:1"
         id="rect70003"
         width="539.75"
         height="52.916664"
         x="-116.41666"
         y="476.25"
         sodipodi:type="rect"
         d="m -116.41666,476.25 h 539.75 v 52.91666 h -539.75 z" />
      <path
         style="display:inline;opacity:0.5;fill:#0ad5a7;fill-opacity:1;stroke:none;stroke-width:3;stroke-linecap:round;stroke-linejoin:round;stroke-miterlimit:4;stroke-dasharray:none;stroke-opacity:1"
         id="rect70005"
         width="539.75"
         height="52.916664"
         x="-116.41668"
         y="539.75"
         sodipodi:type="rect"
         d="m -116.41668,539.75 h 539.75 v 52.91666 h -539.75 z" />
      <path
         style="display:inline;opacity:0.5;fill:#0ad5a7;fill-opacity:1;stroke:none;stroke-width:3;stroke-linecap:round;stroke-linejoin:round;stroke-miterlimit:4;stroke-dasharray:none;stroke-opacity:1"
         id="rect70007"
         width="539.75"
         height="52.916664"
         x="-116.41667"
         y="603.25"
         sodipodi:type="rect"
         d="m -116.41667,603.25 h 539.75 v 52.91666 h -539.75 z" />
      <path
         style="display:inline;opacity:0.5;fill:#0ad5a7;fill-opacity:1;stroke:none;stroke-width:3;stroke-linecap:round;stroke-linejoin:round;stroke-miterlimit:4;stroke-dasharray:none;stroke-opacity:1"
         id="rect70009"
         width="539.75"
         height="52.916664"
         x="-116.41666"
         y="666.75"
         sodipodi:type="rect"
         d="m -116.41666,666.75 h 539.75 v 52.91666 h -539.75 z" />
      <path
         style="display:inline;opacity:0.5;fill:#0ad5a7;fill-opacity:1;stroke:none;stroke-width:3;stroke-linecap:round;stroke-linejoin:round;stroke-miterlimit:4;stroke-dasharray:none;stroke-opacity:1"
         id="rect70011"
         width="539.75"
         height="52.916664"
         x="-116.41666"
         y="730.25"
         sodipodi:type="rect"
         d="m -116.41666,730.25 h 539.75 v 52.91666 h -539.75 z" />
      <path
         style="display:inline;opacity:0.5;fill:#0ad5a7;fill-opacity:1;stroke:none;stroke-width:3;stroke-linecap:round;stroke-linejoin:round;stroke-miterlimit:4;stroke-dasharray:none;stroke-opacity:1"
         id="rect70013"
         width="539.75"
         height="52.916664"
         x="-116.41666"
         y="793.75"
         sodipodi:type="rect"
         d="m -116.41666,793.75 h 539.75 v 52.91666 h -539.75 z" />
    </g>
    <path
       style="display:inline;fill:#eace46;fill-opacity:1;stroke:none;stroke-width:0.31833;stroke-linecap:round;stroke-linejoin:round;stroke-miterlimit:4;stroke-dasharray:none;stroke-opacity:1;paint-order:stroke fill markers"
       d="m 22.555888,37.071557 c -0.339552,-0.358409 -2.174567,-1.831021 -3.122259,-2.50563 l -0.470075,-0.334619 2.404971,-0.01085 c 1.322738,-0.0057 2.412099,-0.004 2.420815,0.0049 0.0087,0.0087 -0.126595,0.226606 -0.30068,0.484202 -0.562837,0.832842 -0.670235,1.113491 -0.741126,1.936677 -0.02527,0.293237 -0.05095,0.538181 -0.0571,0.544337 -0.0065,0.0065 -0.06666,-0.04739 -0.134549,-0.119038 z"
       id="path70084" />
    <path
       style="display:inline;fill:#dc642e;fill-opacity:1;stroke:none;stroke-width:0.062603;stroke-linecap:round;stroke-linejoin:round;stroke-miterlimit:4;stroke-dasharray:none;stroke-opacity:1;paint-order:stroke fill markers"
       d="m 17.501334,33.300197 c -1.115605,-0.688678 -2.712617,-1.421388 -3.706123,-1.70036 -0.771313,-0.216578 -1.090956,-0.263088 -2.004782,-0.29173 l -0.864011,-0.02705 0.558447,-0.414372 c 0.307144,-0.227909 0.558446,-0.431794 0.558446,-0.453081 0,-0.02341 3.504789,-0.03702 8.861384,-0.03451 9.827017,0.0049 9.218261,-0.01685 7.723415,0.272711 -1.062502,0.205821 -1.237964,0.249204 -1.610402,0.398212 -0.645918,0.258414 -1.550802,0.878453 -1.919959,1.315578 -0.103129,0.122131 -0.342347,0.454385 -0.531587,0.738347 l -0.344072,0.516294 -3.107492,-0.004 -3.107508,-0.004 z"
       id="path72461" />
    <path
       style="display:inline;fill:#e13530;fill-opacity:1;stroke:none;stroke-width:0.062603;stroke-linecap:round;stroke-linejoin:round;stroke-miterlimit:4;stroke-dasharray:none;stroke-opacity:1;paint-order:stroke fill markers"
       d="m 12.163985,29.764992 c -0.01102,-0.01102 0.04107,-0.474441 0.115725,-1.029866 0.07468,-0.555425 0.158395,-1.262434 0.186114,-1.571133 0.0277,-0.308699 0.05719,-0.585022 0.06553,-0.614053 0.01207,-0.04212 1.908262,-0.05063 9.380536,-0.04212 l 9.365407,0.01061 0.271317,0.524743 c 0.247463,0.478604 0.269309,0.541728 0.248427,0.718048 -0.04593,0.387577 -0.43527,1.312913 -0.753964,1.791785 l -0.140243,0.210738 -9.359421,0.01061 c -5.147688,0.0057 -9.368435,0.0016 -9.379435,-0.0094 z"
       id="path73551" />
    <path
       style="display:inline;fill:#d72850;fill-opacity:1;stroke:none;stroke-width:0.062603;stroke-linecap:round;stroke-linejoin:round;stroke-miterlimit:4;stroke-dasharray:none;stroke-opacity:1;paint-order:stroke fill markers"
       d="m 12.492878,25.879196 c -0.01547,-0.01547 -0.02811,-0.07144 -0.02811,-0.124457 0,-0.159359 -0.08783,-0.3023 -0.219186,-0.356708 -0.08857,-0.03669 -0.28849,-0.04366 -0.700489,-0.02454 -0.658295,0.03062 -0.930268,-0.01377 -1.257103,-0.205035 -0.4438238,-0.259767 -0.8955848,-0.788681 -1.1720788,-1.372253 -0.139822,-0.295124 -0.317925,-0.887064 -0.317925,-1.056678 0,-0.07509 0.354764,-0.07752 11.2728108,-0.07752 11.101957,0 11.273466,0.0016 11.316437,0.08152 0.02398,0.04487 0.04366,0.170594 0.04366,0.27945 0,0.189637 -0.01255,0.210244 -0.299603,0.492221 l -0.299603,0.294305 0.13101,0.254033 c 0.07209,0.139725 0.131017,0.28989 0.131017,0.333711 0,0.04382 -0.09744,0.174094 -0.216553,0.289494 l -0.216546,0.209831 0.02211,0.241955 c 0.01215,0.133075 0.07031,0.360491 0.129301,0.505375 l 0.107219,0.263412 h -9.199121 c -5.059511,0 -9.211757,-0.01264 -9.227212,-0.02811 z"
       id="path73590" />
    <path
       style="display:inline;fill:#e51e9e;fill-opacity:1;stroke:none;stroke-width:0.062603;stroke-linecap:round;stroke-linejoin:round;stroke-miterlimit:4;stroke-dasharray:none;stroke-opacity:1;paint-order:stroke fill markers"
       d="m 8.7560966,21.639924 c 1.38e-4,-0.214423 0.01847,-0.500912 0.04066,-0.636652 0.03937,-0.240546 0.0341,-0.26402 -0.208769,-0.927231 -0.137052,-0.374237 -0.306002,-0.817938 -0.375443,-0.985997 L 8.0862829,18.784471 H 19.651067 31.21585 l 0.11182,0.14661 c 0.06148,0.0806 0.268248,0.278324 0.459432,0.43932 0.191185,0.161004 0.37891,0.358676 0.417159,0.439287 0.111852,0.235718 0.09028,0.559913 -0.05403,0.811458 -0.152856,0.266498 -0.333469,0.426716 -0.755374,0.670065 -0.484712,0.279587 -0.527108,0.349183 -0.405,0.664815 0.02714,0.07015 -0.518756,0.07379 -11.102751,0.07379 H 8.7558216 l 2.19e-4,-0.389861 z"
       id="path73629" />
    <path
       style="display:inline;fill:#8739d2;fill-opacity:1;stroke:none;stroke-width:0.062603;stroke-linecap:round;stroke-linejoin:round;stroke-miterlimit:4;stroke-dasharray:none;stroke-opacity:1;paint-order:stroke fill markers"
       d="m 7.256284,13.948123 c 0.073953,-0.930584 0.3781485,-1.862287 0.8421975,-2.57964 L 8.2905416,11.071594 H 19.397091 c 7.156763,0 11.10655,0.01458 11.10655,0.0409 0,0.0838 -0.254113,0.733488 -0.352666,0.901627 -0.05621,0.09588 -0.170521,0.246807 -0.254072,0.335381 -0.08355,0.08858 -0.1519,0.185701 -0.1519,0.215841 0,0.03013 0.0829,0.24215 0.184235,0.471145 0.202192,0.456969 0.279377,0.753049 0.279377,1.071719 v 0.208669 H 18.717793 7.2269782 Z"
       id="path73668" />
    <path
       style="display:inline;fill:#4558e6;fill-opacity:1;stroke:none;stroke-width:0.062603;stroke-linecap:round;stroke-linejoin:round;stroke-miterlimit:4;stroke-dasharray:none;stroke-opacity:1;paint-order:stroke fill markers"
       d="m 8.7859856,10.428859 c 0.02227,-0.029 0.161773,-0.213897 0.31006,-0.410937 C 9.8332676,9.0383071 10.68883,8.0969251 11.322955,7.5676306 l 0.397038,-0.3314034 h 9.566221 9.566221 l -0.02373,1.1485071 c -0.02074,1.0064493 -0.09044,1.8141897 -0.176329,2.0441247 -0.01563,0.04196 -2.246988,0.05265 -10.963277,0.05265 -8.748356,0 -10.9354854,-0.01053 -10.9031424,-0.05265 z"
       id="path73707" />
    <path
       style="display:inline;fill:#3be3e4;fill-opacity:1;stroke:none;stroke-width:0.062603;stroke-linecap:round;stroke-linejoin:round;stroke-miterlimit:4;stroke-dasharray:none;stroke-opacity:1;paint-order:stroke fill markers"
       d="m 12.9284,6.501946 c 0.336587,-0.1741905 1.148085,-0.4816179 1.559427,-0.5907654 1.036711,-0.2750922 2.24178,-0.386613 3.708933,-0.3432375 1.539211,0.045522 2.613684,0.168966 4.285281,0.4924314 l 0.892466,0.172692 3.478853,-1.4371748 c 2.547896,-1.0525708 3.523103,-1.437175 3.644174,-1.437175 0.153179,0 0.167192,0.010044 0.19082,0.1369791 0.04941,0.2655586 0.106377,1.1594908 0.135545,2.1284127 l 0.02948,0.9799218 -9.057331,-0.00162 -9.05733,-0.00162 z"
       id="path73746" />
    <path
       style="display:inline;fill:#000000;fill-opacity:0;stroke:none;stroke-width:0.0885338;stroke-linecap:round;stroke-linejoin:round;stroke-miterlimit:4;stroke-dasharray:none;stroke-opacity:1;paint-order:stroke fill markers"
       d="M 7.7277445,17.79888 C 7.4517451,16.857919 7.2446686,15.743432 7.2446686,15.198958 V 14.92295 H 18.660413 30.076164 l -0.150458,0.28265 c -0.08276,0.155455 -0.150068,0.376739 -0.149591,0.491735 0.0024,0.517525 0.301644,1.358143 0.742139,2.083287 0.115862,0.190723 0.210656,0.363382 0.210656,0.383681 0,0.02033 -5.148708,0.03694 -11.441574,0.03694 H 7.8457615 Z"
       id="path87662" />
    <g
       aria-label="DONAGH"
       id="text130046"
       style="font-size:4.85775px;line-height:1.25;font-family:Rockwell-Bold;-inkscape-font-specification:Rockwell-Bold;display:inline;stroke-width:0.214311"
       inkscape:export-filename="C:\Users\donag\Desktop\Donagh_Sugrue_120225113_png.png"
       inkscape:export-xdpi="11.541076"
       inkscape:export-ydpi="11.541076">
      <path
         d="M 8.4762839,18.238712 V 17.674189 H 8.8652834 V 15.318844 H 8.4762839 v -0.578755 h 1.6793391 q 0.692609,0 1.091096,0.258542 0.21822,0.137573 0.37714,0.370024 0.158921,0.230079 0.241939,0.526572 0.08539,0.294122 0.08539,0.628567 0,0.393743 -0.10911,0.713956 -0.109109,0.317841 -0.317841,0.543176 -0.208731,0.222963 -0.507597,0.341561 -0.296493,0.116225 -0.668889,0.116225 z m 1.2689922,-0.545548 h 0.3415609 q 0.339188,0 0.557408,-0.144689 0.218219,-0.14706 0.313097,-0.436438 0.0759,-0.230079 0.0759,-0.550292 0,-0.201616 -0.03558,-0.396115 -0.03795,-0.196872 -0.104366,-0.351049 -0.06404,-0.156548 -0.151805,-0.253798 -0.149432,-0.142317 -0.348676,-0.20636 -0.123341,-0.04032 -0.258542,-0.05218 -0.132829,-0.01186 -0.3889999,-0.01186 z"
         id="path146109" />
      <path
         d="m 13.846375,14.638095 q -0.405604,0 -0.747164,0.135201 -0.339189,0.135201 -0.585871,0.386628 -0.246683,0.249054 -0.381884,0.595359 -0.132829,0.346304 -0.132829,0.759023 0,0.405603 0.130457,0.74242 0.130457,0.334444 0.370024,0.576383 0.241939,0.241939 0.578755,0.372396 0.339189,0.130457 0.744792,0.130457 0.417463,0 0.761395,-0.130457 0.346305,-0.128085 0.592987,-0.372396 0.246683,-0.246682 0.37714,-0.590615 0.132829,-0.343932 0.132829,-0.759023 0,-0.407975 -0.130457,-0.749536 -0.130457,-0.341561 -0.374768,-0.585871 -0.24431,-0.244311 -0.585871,-0.37714 -0.339188,-0.132829 -0.749535,-0.132829 z m 0.0095,0.630938 q 0.203988,0 0.370024,0.08776 0.168409,0.08776 0.287006,0.249055 0.118597,0.161292 0.18264,0.386627 0.06404,0.225335 0.06404,0.502853 0,0.282262 -0.0593,0.509969 -0.06167,0.225335 -0.177896,0.384256 -0.113854,0.15892 -0.27989,0.241939 -0.163665,0.08302 -0.37714,0.08302 -0.296493,0 -0.512341,-0.175524 -0.213475,-0.175525 -0.322585,-0.460158 -0.109109,-0.284634 -0.109109,-0.600103 0,-0.313097 0.106737,-0.590615 0.10911,-0.277518 0.320213,-0.448299 0.211104,-0.17078 0.507597,-0.17078 z"
         id="path146111" />
      <path
         d="m 15.696494,18.238712 v -0.564523 h 0.379512 v -2.355345 h -0.379512 v -0.578755 h 1.356755 l 1.228669,2.341113 v -1.762358 h -0.370024 v -0.578755 h 1.347266 v 0.578755 h -0.388999 v 2.919868 h -0.782743 l -1.423169,-2.706393 v 2.14187 h 0.370024 v 0.564523 z"
         id="path146113" />
      <path
         d="m 19.01485,18.238712 h 1.596321 v -0.562151 h -0.398487 l 0.175524,-0.633311 h 1.005706 l 0.144689,0.633311 h -0.407975 v 0.562151 h 1.598693 v -0.562151 h -0.320213 l -0.737676,-2.357717 h 0.417463 v -0.578755 h -2.390924 v 0.578755 h 0.429323 l -0.782743,2.357717 H 19.01485 Z m 1.515675,-1.676967 0.367652,-1.349639 0.355792,1.349639 z"
         id="path146115" />
      <path
         d="m 26.171018,16.483471 q 0,0.526572 -0.128086,0.832553 -0.128085,0.317842 -0.370024,0.543177 -0.241938,0.225335 -0.581127,0.346304 -0.339188,0.120969 -0.751907,0.120969 -0.538433,0 -0.958268,-0.222963 -0.417462,-0.222963 -0.649913,-0.628566 -0.230079,-0.405603 -0.230079,-0.927432 0,-0.434066 0.128085,-0.787487 0.130457,-0.35342 0.374768,-0.607218 0.241938,-0.256171 0.581127,-0.389 0.341561,-0.135201 0.75428,-0.135201 0.346304,0 0.595359,0.08539 0.251426,0.08776 0.429322,0.275146 v -0.275146 l 0.550292,0.0024 v 1.214438 h -0.602475 q -0.118597,-0.298866 -0.313097,-0.46253 -0.241939,-0.20636 -0.600103,-0.20636 -0.313097,0 -0.53606,0.168409 -0.222963,0.168408 -0.336817,0.443554 -0.111481,0.275146 -0.111481,0.588243 0,0.234823 0.06641,0.460158 0.06641,0.220591 0.1945,0.398487 0.130457,0.177896 0.320213,0.277518 0.187384,0.104366 0.431695,0.104366 0.305981,0 0.526572,-0.18264 0.222963,-0.185012 0.270402,-0.467274 h -0.602475 v -0.569267 z"
         id="path146117" />
      <path
         d="m 26.21134,18.238712 h 1.57023 v -0.562151 h -0.310725 v -1.017566 h 0.955895 v 1.017566 h -0.324957 v 0.562151 h 1.589205 v -0.562151 h -0.393743 v -2.357717 h 0.393743 v -0.578755 h -1.584461 v 0.578755 h 0.320213 v 0.789859 h -0.955895 v -0.789859 h 0.320213 V 14.740089 H 26.21134 v 0.578755 h 0.379512 v 2.357717 H 26.21134 Z"
         id="path146119" />
    </g>
  </g>
</svg>
